<svg xmlns="http://www.w3.org/2000/svg"><symbol id="brachiosaurus" viewBox="0 0 256 256"><path d="M60.12 165.74a32.16 32.16 0 0 0-7.52.84.45.45 0 0 1 0 .11.4.4 0 0 0 0 .13c0 .28.26.59.77 1a13.18 13.18 0 0 0 1.94 1c.78.32 1.66.65 2.6 1s1.87.58 2.75.83 1.65.43 2.35.58a10.18 10.18 0 0 0 1.43.21c.59 0 1.3 0 2.11-.1a13.82 13.82 0 0 0 2.47-.4 11.64 11.64 0 0 0 2.32-.85 4.25 4.25 0 0 0 1.66-1.5 27.55 27.55 0 0 0-6.25-2.16 30.94 30.94 0 0 0-6.63-.69z"/><path d="M127.66 3a124.5 124.5 0 1 0 124.51 124.51A124.5 124.5 0 0 0 127.66 3zm81.2 68.69V72a6.58 6.58 0 0 1-.1 1.37c-.13.65-.18 1.34-.31 2.06s-.22 1.39-.35 2-.18 1.08-.23 1.32a9.61 9.61 0 0 0-.88 1.79c-.23.63-.44 1.26-.63 1.93s-.38 1.3-.57 2a15.44 15.44 0 0 1-.71 1.9 29.73 29.73 0 0 1-1.64 3 20.1 20.1 0 0 0-1.56 3l-19.55 27.13a3.14 3.14 0 0 1-.23.54 1.34 1.34 0 0 1-.26.27c-.08.09-.2.17-.31.28a3.55 3.55 0 0 0-.41.49c-.43.6-1 1.33-1.62 2.21s-1.32 1.81-2 2.82-1.43 2.08-2.15 3.17-1.36 2.16-1.93 3.2a23.62 23.62 0 0 0-1.36 2.9 6.79 6.79 0 0 0-.52 2.28c0 .29-.22.52-.21.71s.19.42.19.68c-.16 0-.26.13-.26.36s.1.38.26.4v10a2.59 2.59 0 0 1-.24 1c-.16.36-.19.73-.36 1.14s-.48.79-.59 1.18-.43.78-.43 1.11v1.62a.38.38 0 0 1 0 .42c-.14.23-.2.49-.38.77s-.54.55-.7.79-.51.37-.51.41v.39c0 .08.68.21.78.4s.85.33.85.41v2.76a24.05 24.05 0 0 1-.6 3.44c-.18 1.15-.55 2.29-.76 3.43s-.47 2.28-.65 3.44a22 22 0 0 0-.32 3.44 57.67 57.67 0 0 0 .29 6.17 40.23 40.23 0 0 0 1.06 6 30.92 30.92 0 0 0 2.09 5.63 22.63 22.63 0 0 0 3.34 5.12 5.91 5.91 0 0 1-1.24.81 8.91 8.91 0 0 1-1.64.66 12.16 12.16 0 0 1-1.69.46 4.71 4.71 0 0 1-1.41.08l-.45-.1c-.3-.06-.62-.14-1-.24l-1.17-.26c-.41-.1-.72-.16-1-.21a5.58 5.58 0 0 1-.79-.08 4 4 0 0 1-.73-.27 3.12 3.12 0 0 1-.6-.47 1.39 1.39 0 0 1-.33-.7 29.06 29.06 0 0 0 .12-4c-.05-1.38-.15-2.78-.28-4.18s-.32-2.79-.5-4.18-.38-2.72-.52-4a2.6 2.6 0 0 1-.2-.62 1.42 1.42 0 0 0-.24-.58c.06-1.09.1-2.27.13-3.57s0-2.62-.13-4a26.37 26.37 0 0 0-.58-3.9 11.14 11.14 0 0 0-1.39-3.34 3.26 3.26 0 0 0-1.42 1.77 20 20 0 0 0-.77 2.66c-.21.94-.19 1.88-.42 2.83s-.91 1.7-.91 2.29v7.4c0 2.78-.21 5.49-.1 8.12s.2 5.31.56 8a1.5 1.5 0 0 0 .4.32c.26.18.51.38.8.59a7.31 7.31 0 0 1 .78.68.93.93 0 0 1 .33.62c0 .23-.26.48-.8.78a13.85 13.85 0 0 1-1.8.84 18.53 18.53 0 0 1-2 .81 11.68 11.68 0 0 1-1.25.41H152l-4.65-2.53a.45.45 0 0 1-.22-.47v-.59a21.82 21.82 0 0 1 0-2.94 21.18 21.18 0 0 0 .11-3 25.46 25.46 0 0 0-.31-3.72c-.16-1.22-.38-2.44-.57-3.64s-.4-2.44-.58-3.67a29.65 29.65 0 0 1-.25-3.82c0-1.2 0-2.29.11-3.25s.2-1.86.34-2.74.34-1.8.52-2.74.41-2 .65-3.14a1.36 1.36 0 0 0 0-.7 4.44 4.44 0 0 1-.11-.69 7.7 7.7 0 0 0-1.84.21c-.6.14-1.2.3-1.82.5l-1.88.6a16.17 16.17 0 0 1-1.87.5c-.5.07-1 .13-1.33.2s-.71.1-1.05.13-.65-.12-1-.11-.67-.17-1-.17h-1.79c-1.77 0-3.49.11-5.15 0s-3.36-.15-5.14-.15c-.77 0-1.56.06-2.39.1a4 4 0 0 0-2.31.83v5.1c0 1.68-.1 3.33-.16 5s-.2 3.33-.26 5-.15 3.37-.15 5.09v5.01c0 .54.65 1.09 1.1 1.64s.94 1.11 1.38 1.68a15.37 15.37 0 0 1 1.17 1.72 3.37 3.37 0 0 1 .51 1.75v.38a9.06 9.06 0 0 1-4 .39c.08.47 0 .71-.23.78a4.2 4.2 0 0 1-.69.06h-2a9.86 9.86 0 0 1-2.21-.22 4.3 4.3 0 0 1-1.78-.83 2.15 2.15 0 0 1-.75-1.82 7 7 0 0 1 .13-1.27c.1-.42.19-.84.31-1.26s.23-.85.31-1.29a6.75 6.75 0 0 0 .13-1.36 25.28 25.28 0 0 0-.26-3.75c-.18-1.2-.41-2.37-.67-3.53s-.52-2.59-.79-3.74a25.72 25.72 0 0 1-.7-3.89h-.43c-.21 0-.37.74-.5.9s-.26.48-.39.67-.23.41-.31.52c-.48.73-1 1.51-1.52 2.23s-1 1.48-1.43 2.22a16.78 16.78 0 0 0-1.06 2.38 8.49 8.49 0 0 0-.42 2.64 4.26 4.26 0 0 0 .32 1.59 13.61 13.61 0 0 0 .72 1.48c.26.44.5.83.71 1.14a1.61 1.61 0 0 1 .33.57.82.82 0 0 1-.41.71 3.13 3.13 0 0 1-1 .46 11.49 11.49 0 0 1-1.3.26c-.45 0-.89.09-1.31.09h-1.18a10.76 10.76 0 0 1-1.69-.13 2 2 0 0 1-1-.38 2.1 2.1 0 0 1-.68-.85 9.29 9.29 0 0 1-.54-1.59c-.16-.53-.32-1-.5-1.57a4.94 4.94 0 0 1-.28-1.63 3.34 3.34 0 0 1 .41-1.46c.27-.51.58-1 .92-1.56s.7-1 1-1.54a7.22 7.22 0 0 0 .8-1.42c.83-1.91 1.62-3.85 2.4-5.78s1.59-3.85 2.42-5.78a4.27 4.27 0 0 1 .46-.73l.52-.7a4.07 4.07 0 0 0 .42-.73 1.75 1.75 0 0 0 .18-.81c0-.36-.12-.57-.33-.62a2.86 2.86 0 0 0-.63-.08 1.89 1.89 0 0 0-.38.05h-.24l-8.81 2.5a2.84 2.84 0 0 1-1.28.52l-1.74.39a5.94 5.94 0 0 0-1.54.57 1.08 1.08 0 0 0-.69 1 1.47 1.47 0 0 0 .26.87 2.63 2.63 0 0 0 .64.65l.81.54a2.82 2.82 0 0 1 .73.6l-.39.42c-.37-.26-.8-.53-1.25-.83a13.05 13.05 0 0 0-1.38-.81 9.77 9.77 0 0 0-1.48-.6 4.76 4.76 0 0 0-1.48-.23 14.41 14.41 0 0 0-3.72.51c-1.26.32-2.56.69-3.88 1.1s-2.64.8-4 1.12a16.89 16.89 0 0 1-4.12.5 21.11 21.11 0 0 1-3.4-.39c-1.46-.24-3-.61-4.79-1.08s-3.5-1.06-5.31-1.72a39.14 39.14 0 0 1-4.89-2.21 15.74 15.74 0 0 1-3.6-2.63 4.14 4.14 0 0 1-1.41-2.91 4.37 4.37 0 0 1 1.1-3.2 6.2 6.2 0 0 1 2.7-1.61 13.62 13.62 0 0 1 3.41-.14c1.2 0 2.3.32 3.28.32h3.85a2.55 2.55 0 0 1 1.26-.24c.68.08 1.44 0 2.28.14s1.69.18 2.51.31 1.47.18 1.93.26a7.65 7.65 0 0 1 1.9.53c.58.28 1.17.54 1.75.83a16.79 16.79 0 0 0 1.79.74 6.06 6.06 0 0 0 2 .32 8.51 8.51 0 0 0 3.9-1 28.71 28.71 0 0 0 4-2.5c1.34-1 2.62-2 3.82-3.05s2.27-1.95 3.2-2.66a15.63 15.63 0 0 1 1.82-1.22c.62-.34 1.22-.7 1.82-1.07a16.63 16.63 0 0 0 1.69-1.24 8 8 0 0 0 1.46-1.67 36.18 36.18 0 0 0 2.56-4.39 31.29 31.29 0 0 1 2.65-4.36 6.8 6.8 0 0 1 1.28-1.29 16.11 16.11 0 0 1 1.51-1c.52-.29 1.06-.59 1.6-.86a14.71 14.71 0 0 0 1.59-.9 42.81 42.81 0 0 0 3.52-2.58c1.15-.92 2.27-1.88 3.38-2.86s2.21-1.94 3.3-2.94 2.2-1.91 3.37-2.8a20.77 20.77 0 0 1 3.71-2.16c1.3-.59 2.58-1.21 3.84-1.82.83-.38 1.64-.8 2.44-1.25s1.61-.88 2.42-1.29a26.86 26.86 0 0 1 2.52-1.12 12.5 12.5 0 0 1 2.61-.73l21.94-3.2a10.64 10.64 0 0 0 3.43-1.1 19.74 19.74 0 0 0 3.29-2.15 29.22 29.22 0 0 0 3.12-2.82c1-1 1.95-2.11 2.86-3.18s1.79-2.13 2.62-3.15 1.57-1.94 2.27-2.75l7.55-8.8a1.91 1.91 0 0 0 .33-.26 6.7 6.7 0 0 0 .51-.54 6.16 6.16 0 0 0 .51-.52c.16-.14.24-.24.27-.26l2-3.19a1.23 1.23 0 0 1 .25-.17l.37-.22.37-.23a.67.67 0 0 0 .21-.2 3 3 0 0 0 .41-.39c.19-.21.31-.32.36-.39.37-.48.78-1 1.21-1.67s.91-1.27 1.35-1.93.88-1.3 1.29-1.92a17.28 17.28 0 0 0 .94-1.69 12.79 12.79 0 0 0 .84-2c.23-.68.46-1.38.68-2.08s.49-1.43.75-2.14 1-1.45 1-2.16v-6a5.08 5.08 0 0 0-1.07-3 11.4 11.4 0 0 0-2.58-2.56 12.77 12.77 0 0 0-3.29-1.77 9.06 9.06 0 0 0-3.14-.67 24.18 24.18 0 0 0-5.7.67 11.94 11.94 0 0 0-5 2.58 12.29 12.29 0 0 0-1.41 1.4c-.51.58-1 1.2-1.58 1.83l-1.72 2a23.5 23.5 0 0 1-1.8 1.8 10.69 10.69 0 0 1-1.79 1.28 3.43 3.43 0 0 1-1.74.5 1.68 1.68 0 0 1-1.64-1.57v-.42c0-.08.07-.25.12-.47s.1-.49.15-.75.11-.52.14-.76a2.52 2.52 0 0 0 .07-.46 4.84 4.84 0 0 0-.24-1.64 13.63 13.63 0 0 0-.58-1.33c-.23-.41-.41-.8-.58-1.17a2.9 2.9 0 0 1-.25-1.22 1.07 1.07 0 0 0 .83-.26 2.66 2.66 0 0 0 .44-.61c.13-.25.28-.49.42-.74a1.67 1.67 0 0 1 .78-.58 1.35 1.35 0 0 1 .54-.05c.22 0 .52-.11.84-.11s.64-.1.9-.1h.5a1 1 0 0 0 .92-.36 3.7 3.7 0 0 1 .7-.65.58.58 0 0 1 .23 0l.15.05a.9.9 0 0 1 .24.37 1.66 1.66 0 0 0 .18.41.43.43 0 0 1 .39-.37c.1-.07.31-.18.62-.36l1.08-.63 1.33-.8c.48-.27.91-.53 1.32-.78l1.07-.63a3.56 3.56 0 0 0 .55-.39 16.7 16.7 0 0 1 2.07-1.23 7.06 7.06 0 0 1 1.73-.62 9.35 9.35 0 0 1 1.89-.21h6.32a6 6 0 0 0 1.44.52c.5.13 1 .22 1.49.3l1.53.31a9.86 9.86 0 0 1 1.51.49 14.83 14.83 0 0 1 4.47 3 16.75 16.75 0 0 1 3.13 4.12 19.21 19.21 0 0 1 1.69 4.94 23.28 23.28 0 0 1 .47 5.34v2.28z"/></symbol><symbol id="velociraptor" viewBox="0 0 256 256"><path d="M128.79 4A124.17 124.17 0 1 0 253 128.17 124.15 124.15 0 0 0 128.79 4zm107.37 113.31c-1.38.08-2.73.08-4 0s-2.37-.08-3.18-.08c-3 0-6-.15-8.92-.44s-5.93-.62-8.89-.94-5.91-.65-8.88-.94-6-.44-9-.44a131.45 131.45 0 0 0-15.9 1 72.38 72.38 0 0 0-15.39 3.6l-29.82 10.77a2.39 2.39 0 0 0-1.18 1.52 19.62 19.62 0 0 0-.8 2.68c-.22 1-.42 1.89-.61 2.78a6.8 6.8 0 0 1-.6 1.91 3.06 3.06 0 0 0 1.34 1.3 20.54 20.54 0 0 0 2.38 1.13l2.82 1.15a19.25 19.25 0 0 1 2.71 1.41 8.64 8.64 0 0 1 2 1.83A3.79 3.79 0 0 1 141 148a1.6 1.6 0 0 1-.47 1.18 5 5 0 0 1-1.18.86 13.31 13.31 0 0 1-1.57.71 9.57 9.57 0 0 0-1.57.78 4.47 4.47 0 0 0-1.2 1 2.27 2.27 0 0 0-.47 1.47 3.61 3.61 0 0 0 .78 2.48 7.73 7.73 0 0 0 1.87 1.54c.73.45 1.51.87 2.32 1.3a7.15 7.15 0 0 1 2.11 1.68 16.94 16.94 0 0 1 2 3.37 23.17 23.17 0 0 1 1.25 3.59 32.47 32.47 0 0 1 .74 3.76c.18 1.28.11 2.58.26 3.86l1.28 1.28v7a3.69 3.69 0 0 1 .84 0c.27.05.69.1 1 .18s.68.15 1 .21a1.32 1.32 0 0 1 .55.23c.05.43.08.71.08.82a7 7 0 0 1-.1.94 8 8 0 0 1-.36 1.22 3.15 3.15 0 0 1-.61.91 1 1 0 0 1-.86.3h-5.07c-.19 0-.5-.51-1-.8s-.94-.53-1.46-.84-1-.45-1.52-.76-.87-.84-1.13-.84h-6a4.59 4.59 0 0 1 .63-2.88 4.2 4.2 0 0 1 1.6-1.51 6.9 6.9 0 0 1 2.08-.64c.73-.1 1.42-.21 2.07-.34a5.18 5.18 0 0 0 1.59-.59 1.45 1.45 0 0 0 .63-1.34 2.07 2.07 0 0 0 0-.32v-.3c-.18-.4-.45-1-.83-1.73s-.77-1.54-1.24-2.36a28 28 0 0 0-1.49-2.42 9.43 9.43 0 0 0-1.52-1.76 7.77 7.77 0 0 0-1.27-.78l-1.81-.92a18.19 18.19 0 0 1-1.72-1 2.14 2.14 0 0 1-.94-1.07 21.86 21.86 0 0 1-.9-2.87 21.84 21.84 0 0 0-1.06-3.14 7.78 7.78 0 0 0-1.68-2.52 3.87 3.87 0 0 0-2.82-1 22.81 22.81 0 0 0-5.9.77 26.1 26.1 0 0 0-5.58 2.19 25.42 25.42 0 0 0-4.88 3.38 22.06 22.06 0 0 0-3.84 4.47.38.38 0 0 1-.34.18h-.16a.14.14 0 0 1-.11-.15c-.07 0-.13-.14-.2-.32s-.09-.39-.16-.62-.11-.42-.16-.59a.66.66 0 0 0-.15-.33.55.55 0 0 0-.27-.06 1.37 1.37 0 0 0-1 .47 6.19 6.19 0 0 0-.86 1.13c-.27.44-.55.87-.81 1.3a3.52 3.52 0 0 1-.82 1 4.33 4.33 0 0 1-.63-1.61 14.17 14.17 0 0 1-.08-1.6 10.46 10.46 0 0 1 .38-2.83c.26-.91.56-1.82.88-2.74s.63-1.54.89-2.49a19.23 19.23 0 0 0 .39-2.71h-4.88c0-1.62.21-1.76.63-2.32a5.62 5.62 0 0 1 1.58-1.53 6.72 6.72 0 0 1 2.07-.89 9.52 9.52 0 0 1 2.07-.29 20.69 20.69 0 0 1 3 .19l2.87.46c.94.18 1.87.32 2.81.45a20.67 20.67 0 0 0 2.85.19h2.26a2.5 2.5 0 0 0-1.66-1.33 14.44 14.44 0 0 0-2.47-.44l-2.63-.19c-.87-.05-1.57.14-2.14-.2l-3.8-2.14h-.28a13.34 13.34 0 0 0-3.09 0 13.07 13.07 0 0 1-3.08.16 7.21 7.21 0 0 1-2.93-.68 27.23 27.23 0 0 1-2.6-1.59c-.83-.47-1.74-.93-2.56-1.32a5 5 0 0 0-2.82-.61v5.91a13.49 13.49 0 0 0 1.55-.14 5.12 5.12 0 0 0 1-.33 5.65 5.65 0 0 0 .87-.5c.3-.19.36-.4.86-.63.12-.07.6-.13.6-.16v2.7l2-.66c0 .11.19.27.21.5s.12.37.12.49a5.48 5.48 0 0 1-1.28 3.79 21.38 21.38 0 0 1-3.19 2.83 22.69 22.69 0 0 0-4.49-1.23c-1.47-.24-3.05-.45-4.67-.65V147c0 .08-1 .24-1.7.52a16 16 0 0 0-2 1 12.84 12.84 0 0 0-1.87 1.16c-.45.41-.91.8-.91 1.15v6.74a10.08 10.08 0 0 0 2.9-.27 11.72 11.72 0 0 0 1.79-.59 9.65 9.65 0 0 0 1.2-.58 2.59 2.59 0 0 1 1.2-.27h.14a1.2 1.2 0 0 0 .2 0c.05.11.13.34.28.71l.45 1.22c.15.43.28.87.38 1.26a4.33 4.33 0 0 1 .18.94 5 5 0 0 1-.39 1.86 7.11 7.11 0 0 1-1.06 1.77 5.59 5.59 0 0 1-1.6 1.38 3.27 3.27 0 0 1-1.78.53 3.09 3.09 0 0 1-.57-.06l-.43-.05c-.73-.14-1.7-.31-2.92-.47a27.67 27.67 0 0 1-3.56-.7A11.57 11.57 0 0 1 66 163a2.46 2.46 0 0 1-1.42-2v-11.45c0-.11.39-.37.87-.81s1.15-.94 1.84-1.57 1.5-1.33 2.33-2.12a24.34 24.34 0 0 0 2.31-2.48 19.68 19.68 0 0 0 1.74-2.57 5.36 5.36 0 0 0 .72-2.53 3.77 3.77 0 0 0-1.15-2.7 11.45 11.45 0 0 0-2.74-2 23.13 23.13 0 0 0-3.17-1.39c-1.07-.36-1.9-.65-2.48-.87l-1.28-8.9c-.14-.81-.34-1.68-.6-2.64a11.48 11.48 0 0 0-1.08-2.68 7.09 7.09 0 0 0-1.73-2.09 4 4 0 0 0-2.6-.86 12 12 0 0 0-3.54.47 14.28 14.28 0 0 0-3.14 1.46c-.33.22-.86.55-1.61 1s-1.55.92-2.48 1.46-1.87 1.1-2.9 1.71-2 1.17-2.89 1.7-1.75 1.2-2.48 1.62-1.28 1.09-1.61 1.09h-1c-.46 0-1-.2-1.69-.23a15.25 15.25 0 0 1-2-.36 3.5 3.5 0 0 1-1.35-.74c-.45-.31-.34-.79-.34-1.34v-1.83c0-.59-.21-.89 0-.91s.66 0 1.53 0a1 1 0 0 1 0-.42c.06-.24.09-.5.15-.79s.12-.58.17-.84a.85.85 0 0 0 0-.49 2.45 2.45 0 0 0-.79-.81c-.29-.16-.58-.32-.86-.49a2.31 2.31 0 0 1-.68-.64 2 2 0 0 1-.28-1.22 3 3 0 0 1 .25-1.15 4.63 4.63 0 0 1 .66-1.13c.28-.36.24-.63.6-.86a3.2 3.2 0 0 1 .79-.32v.72c0 .48.41 1 .55 1.44a1.16 1.16 0 0 0 1.18.71 1.55 1.55 0 0 0 1.2-.45 5.26 5.26 0 0 0 .93-1.1 9.17 9.17 0 0 0 .57-1.6c.15-.44.25.26.25-1.36H24.82a1.84 1.84 0 0 1-.85-.46c-.35-.26-.69-.38-1-.66a5.65 5.65 0 0 1-.89-.78 1.41 1.41 0 0 1-.39-1 4.39 4.39 0 0 1 1.06-3.11 7.3 7.3 0 0 1 2.54-1.75 16.11 16.11 0 0 1 3.11-1 20.34 20.34 0 0 0 2.78-.8c.41-.15 1.14-.46 2.16-.91s2.14-1 3.29-1.52 2.25-1 3.25-1.55a10 10 0 0 1 2.14-1H55.3a7.27 7.27 0 0 1 3.77 1 13.08 13.08 0 0 1 3 2.47 24.82 24.82 0 0 1 2.47 3.23c.76 1.15 1.51 2.23 2.24 3.22a15.87 15.87 0 0 0 2.22 2.49 3.59 3.59 0 0 0 2.43 1 .81.81 0 0 0 .76-.39.85.85 0 0 1 .82-.39 3.78 3.78 0 0 1 1.48.31c.48.19 1 .44 1.49.7s1 .48 1.49.68a3.78 3.78 0 0 0 1.52.3c1.36 0 2.7-.06 4-.19s2.65-.28 4-.44 2.69-.32 4-.47a37.92 37.92 0 0 1 4-.23 63 63 0 0 1 7.13.39 38.18 38.18 0 0 1 7.06 1.54c1.62.55 3.25 1.2 4.92 2s3.32 1.44 5 2.12a44.9 44.9 0 0 0 5.1 1.71 20.57 20.57 0 0 0 5.31.68h1.23c.6 0 1-.07 1.3-.07 4.19-.91 8.39-1.8 12.57-2.64s8.35-1.6 12.52-2.23 8.39-1.14 12.61-1.53 8.51-.55 12.81-.55h3.26c1.76 0 3.56 0 5.38.12a39.23 39.23 0 0 1 4.94.9l35.55 7.08h11.52c-.78 0-1.8 1-3.06 1.33a18 18 0 0 1-3.98.07z"/></symbol><symbol id="micropachycephalosaurus" viewBox="0 0 256 256"><path d="M132.57 149.77c-.27 0-.4.19-.4.58a.11.11 0 0 0-.08 0c-.31 0-.47.16-.47.49s.16.58.47.58.4-.2.4-.58a.11.11 0 0 0 .08 0 .44.44 0 0 0 .51-.49c0-.35-.17-.58-.51-.58zM134 149a2.27 2.27 0 0 0-.84.78h.29a2.56 2.56 0 0 0 1.91-1.09h-.29a2.09 2.09 0 0 0-1.07.31zm3-2.52c-.28 0-.41.18-.41.53a.23.23 0 0 0-.12 0c-.28 0-.43.18-.43.55a.18.18 0 0 0-.11 0c-.31 0-.47.2-.47.59s.16.53.47.53.45-.18.45-.53 0 0 .09 0c.3 0 .45-.2.45-.59h.08c.34 0 .5-.17.5-.55s-.18-.53-.5-.53zm22.67-5.78a13.75 13.75 0 0 1-1.25 1.38 1.76 1.76 0 0 0 .8 1 2.83 2.83 0 0 0 1.11.19 2 2 0 0 0 1.36-.47 4.6 4.6 0 0 0 1-1.19 10.38 10.38 0 0 0 .75-1.44c.21-.5.37-1.15.48-1.15h-3.33c-.16-.02-.47 1.08-.92 1.68z"/><path d="M128.14 3a124.17 124.17 0 1 0 124.17 124.17A124.15 124.15 0 0 0 128.14 3zm93.11 73.66a5.12 5.12 0 0 1-1.53.37 12.64 12.64 0 0 1-1.62.08h-1.06c-.34 0-.65.05-.93.06a41.52 41.52 0 0 0-5.11 1.24 15.43 15.43 0 0 0-3.54 1.59 9.28 9.28 0 0 0-2.46 2.08 13.87 13.87 0 0 0-1.68 2.92 36.12 36.12 0 0 0-1.46 3.81c-.47 1.44-1 3.07-1.62 4.94-.39 1.16-.78 2.28-1.17 3.35s-.79 2.1-1.23 3.11-.89 2-1.41 3.06-1.08 2.07-1.71 3.16a32.19 32.19 0 0 1-2.61 4c-.92 1.22-1.88 2.42-2.88 3.58l-3 3.48c-1 1.16-2 2.42-3 3.74a10.28 10.28 0 0 0-1.34 2.61c-.29.86-.6 1.7-.94 2.5a8.21 8.21 0 0 1-1.31 2.15 5.41 5.41 0 0 1-2.43 1.55 8.14 8.14 0 0 1-1.31.56l-2 .66-2 .62c-.63.19-1.07.32-1.33.37a2.76 2.76 0 0 1 .16 2 1.87 1.87 0 0 1-.84.91 11.74 11.74 0 0 1-1.18.58 1.69 1.69 0 0 0-.88.94l-2.2 6.58a2.58 2.58 0 0 1-1 1.47 5.68 5.68 0 0 1-1.73.84 10.43 10.43 0 0 1-2 .18 13.62 13.62 0 0 1-1.82-.13h-.82c-.47 0-.84.16-1.1 0s-.41-.32-.41-.82a.5.5 0 0 1 .12-.37 1.93 1.93 0 0 1 .22-.28c.08-.1.16-.18.23-.28a.69.69 0 0 0 .1-.38.26.26 0 0 0 0-.11.37.37 0 0 1 0-.17 21.9 21.9 0 0 0-3.35 1.62c-1.08.63-2.18 1.31-3.29 2s-2.17 1.4-3.25 2.12-2.17 1.34-3.29 1.93a3.58 3.58 0 0 1-.84.43 10.09 10.09 0 0 0-1.14.57 4.94 4.94 0 0 0-1 .76 1.46 1.46 0 0 0-.42 1v.32a1.34 1.34 0 0 1 0 .23l1.75 1.59q.9.86 1.89 1.68a24.14 24.14 0 0 0 2 1.57 15.14 15.14 0 0 0 2 1.22 9.1 9.1 0 0 0 1.77.66c.61.18 1.25.34 1.89.52s1.25.39 1.85.63a7.85 7.85 0 0 1 1.64.89 8.11 8.11 0 0 1 1.31 1.38l1.08 1.47c.34.49.72 1 1.1 1.43a6.12 6.12 0 0 0 1.45 1.25 6 6 0 0 0 1.63.58 15.31 15.31 0 0 1 2 .63 6.11 6.11 0 0 1 1.75 1 2.06 2.06 0 0 1 .74 1.67 1.11 1.11 0 0 1-.06.27.84.84 0 0 0-.05.23l-5.4 1.14a3.63 3.63 0 0 0-1.07.37 2.34 2.34 0 0 1-1.14.26h-.27a1.63 1.63 0 0 0-.28 0l-1.1-.62-1.7-1c-.6-.34-1.15-.68-1.65-1a7 7 0 0 1-1-.73s-.1-.08-.2-.21l-.3-.49-.34-.53c-.1-.18-.2-.33-.25-.44l-2.2-4.4c-.23-.08-.6-.23-1.12-.44s-1.11-.45-1.76-.73-1.35-.58-2.09-.91-1.43-.64-2.09-.94-1.25-.56-1.75-.81a9.13 9.13 0 0 1-1.08-.58 22.63 22.63 0 0 1-2.73-1.54 15.51 15.51 0 0 1-2.55-2.09 12.44 12.44 0 0 1-2-2.62 8 8 0 0 1-1-3.06l-.55.22a2.86 2.86 0 0 0-.59.33 8 8 0 0 1-.84.63c-.45.32-1 .71-1.67 1.15s-1.34.91-2.07 1.38-1.43.9-2.07 1.33l-1.72 1c-.49.29-.79.47-.92.52-2.21 1.31-4.15 2.46-5.85 3.45a22.68 22.68 0 0 0-4.44 3.33 17.08 17.08 0 0 0-3.54 4.34c-.86 1.67-.7 3.82-2.32 6.46v.62a4.17 4.17 0 0 0 0 .5v.42a9.82 9.82 0 0 0 1.12 4.34 7.72 7.72 0 0 0 2.08 2.51 8.2 8.2 0 0 0 2.57 1.38c.89.31 1.76.62 2.51 1a5.56 5.56 0 0 1 1.92.94 5 5 0 0 1 .78 2h-13a4.1 4.1 0 0 0-.17-.39c-.1-.16-.23-.11-.36-.19a4.77 4.77 0 0 0-.49-.15 3.47 3.47 0 0 1-.6-.31 3 3 0 0 1-1.23-1.51 8.57 8.57 0 0 1-.45-2.11 17.67 17.67 0 0 1 .19-2.28c0-.76.28-1.42.28-2v-1.42a6.79 6.79 0 0 1 .26-1.72c.21-.79.32-1.67.57-2.64s.46-2 .75-3.08.54-2.1.78-3.07.47-1.85.65-2.61.33-1.35.41-1.72a17.05 17.05 0 0 1 .65-2 12.78 12.78 0 0 1 1-1.84 14.07 14.07 0 0 0 4.4-2.51 26.74 26.74 0 0 0 3.18-3.21c1-1.12 1.91-2.23 2.83-3.35a15 15 0 0 1 3.35-3 7.07 7.07 0 0 1 1.41-.7l2-.78c.75-.29 1.49-.61 2.27-.94a14.24 14.24 0 0 0 2.1-1.1 7.5 7.5 0 0 0 1.54-1.29 2.31 2.31 0 0 0 .6-1.53v-1.29a1.73 1.73 0 0 0-.61-1.18c-.13 0-.39-.13-.75-.28s-.74-.32-1.16-.52-.8-.37-1.15-.55l-.76-.32a10.45 10.45 0 0 1-2-1.18l-2.58-1.85c-.89-.65-1.72-1-2.49-1.52a3.08 3.08 0 0 0-1.7-.55h-7.7c-5.84 0-11.59-.1-17.26.09s-11.42.2-17.27.2c-4.29 0-8.48-.15-12.57-.36a106.93 106.93 0 0 1-12.09-1.33A84.94 84.94 0 0 1 37 128.3a67.58 67.58 0 0 1-11.51-4.93l-1.39-.7a11.7 11.7 0 0 1-1.56-1 5.79 5.79 0 0 1-1.26-1.26 2.47 2.47 0 0 1-.52-1.54 6.81 6.81 0 0 1 2.06.39c.77.28 1.57.57 2.35.91s1.49.64 2.13.95 1.14.5 1.48.62c1.41.55 2.93 1.1 4.55 1.62s3.27 1 4.94 1.41 3.35.72 5 1a33.38 33.38 0 0 0 4.75.34H72.7a9.38 9.38 0 0 0 1.2-.12c.66-.09 1.49-.19 2.49-.34s2.09-.3 3.29-.51 2.38-.4 3.55-.59 2.3-.39 3.35-.6 1.93-.4 2.61-.56l6.73-1.32q3.57-.67 7.19-1.57c2.42-.6 4.78-1.28 7.1-2a46.6 46.6 0 0 0 6.46-2.74l3.74-1.73c1.22-.57 2.45-1.1 3.71-1.57s2.54-.93 3.85-1.3a31.87 31.87 0 0 1 4.12-.89c.1 0 .44-.06 1-.11l1.75-.12 1.73-.14a5.17 5.17 0 0 0 1-.18 17.33 17.33 0 0 0 1.85-.32l3.27-.72c1.25-.27 2.58-.56 4-.89l3.95-.89c1.23-.27 2.32-.9 3.24-1.09s1.54-.71 1.85-.71h6.39c2.66 0 5.25.47 7.76.7s5 .5 7.66.5a9.9 9.9 0 0 0 4.93-1.22 18.23 18.23 0 0 0 4.4-3.42 32.27 32.27 0 0 0 3.81-4.85c1.16-1.82 2.22-3.65 3.17-5.53a58.8 58.8 0 0 0 2.49-5.46c.72-1.78 1.28-3.33 1.74-4.69.42-1.17.78-2.3 1.1-3.38s.65-2.12 1-3.06a15.89 15.89 0 0 1 1.18-2.56 7 7 0 0 1 1.64-2.01 7.44 7.44 0 0 1 2.56-1.57 12.05 12.05 0 0 1 3.7-.77h3c.75 1.62 1.72.89 2.92 1.28s2.34 1 3.46 1.49a14.91 14.91 0 0 1 2.92 1.78 2.76 2.76 0 0 1 1.21 2.13 2 2 0 0 1-.44 1.38 3.09 3.09 0 0 1-1.08.82z"/></symbol></svg>